<svg width="20" height="21" fill="none" xmlns="http://www.w3.org/2000/svg"><circle cx="10" cy="10.5" r="9" fill="#D9ECDE"/><path d="M9.642 7.016c-.327 0-.64.042-.938.126a4.03 4.03 0 00-.938.378L7.29 6.218c.345-.196.737-.35 1.176-.462a5.225 5.225 0 011.372-.182c.56 0 1.022.08 1.386.238.364.15.653.34.868.574.215.234.364.49.448.77.084.28.126.55.126.812 0 .318-.06.602-.182.854a3.019 3.019 0 01-.434.7c-.177.215-.369.42-.574.616a6.835 6.835 0 00-.574.588 3.236 3.236 0 00-.448.63 1.667 1.667 0 00-.168.756v.168c0 .056.005.112.014.168H8.844a2.78 2.78 0 01-.042-.294 3.732 3.732 0 01-.014-.308c0-.308.051-.583.154-.826.103-.242.233-.466.392-.672.159-.205.327-.396.504-.574a9.14 9.14 0 00.518-.532c.159-.177.29-.36.392-.546.103-.186.154-.392.154-.616a.977.977 0 00-.322-.756c-.205-.205-.518-.308-.938-.308zm1.092 7.56c0 .327-.107.593-.322.798a1.11 1.11 0 01-.798.308 1.14 1.14 0 01-.798-.308c-.215-.205-.322-.471-.322-.798 0-.326.107-.592.322-.798.224-.214.49-.322.798-.322.317 0 .583.108.798.322.215.206.322.472.322.798z" fill="#3DA057"/></svg>